<mxfile host="65bd71144e">
    <diagram id="HjbBDOAjlTMLZC0CHcgm" name="Page-1">
        <mxGraphModel dx="1307" dy="707" grid="1" gridSize="10" guides="1" tooltips="1" connect="1" arrows="1" fold="1" page="1" pageScale="1" pageWidth="850" pageHeight="1100" math="0" shadow="0">
            <root>
                <mxCell id="0"/>
                <mxCell id="1" parent="0"/>
                <mxCell id="32" value="" style="group" vertex="1" connectable="0" parent="1">
                    <mxGeometry x="220" y="180" width="292.5" height="150" as="geometry"/>
                </mxCell>
                <mxCell id="30" value="" style="rounded=1;whiteSpace=wrap;html=1;" vertex="1" parent="32">
                    <mxGeometry width="292.5" height="150" as="geometry"/>
                </mxCell>
                <mxCell id="15" value="LD" style="rounded=1;whiteSpace=wrap;html=1;" vertex="1" parent="32">
                    <mxGeometry x="214.5" y="30" width="75" height="14" as="geometry"/>
                </mxCell>
                <mxCell id="16" value="ST" style="rounded=1;whiteSpace=wrap;html=1;" vertex="1" parent="32">
                    <mxGeometry x="214.5" y="97" width="75" height="13" as="geometry"/>
                </mxCell>
                <mxCell id="17" value="DMB.I" style="rounded=1;whiteSpace=wrap;html=1;" vertex="1" parent="32">
                    <mxGeometry x="214.5" y="49" width="75" height="20" as="geometry"/>
                </mxCell>
                <mxCell id="18" value="DMB.O" style="rounded=1;whiteSpace=wrap;html=1;" vertex="1" parent="32">
                    <mxGeometry x="214.5" y="72" width="75" height="20" as="geometry"/>
                </mxCell>
                <mxCell id="24" value="xxx" style="rounded=1;whiteSpace=wrap;html=1;" vertex="1" parent="32">
                    <mxGeometry x="124.5" y="25" width="75" height="30" as="geometry"/>
                </mxCell>
                <mxCell id="25" value="xxx" style="rounded=1;whiteSpace=wrap;html=1;" vertex="1" parent="32">
                    <mxGeometry x="124.5" y="60" width="75" height="30" as="geometry"/>
                </mxCell>
                <mxCell id="26" value="xxx" style="rounded=1;whiteSpace=wrap;html=1;" vertex="1" parent="32">
                    <mxGeometry x="124.5" y="95" width="75" height="30" as="geometry"/>
                </mxCell>
                <mxCell id="27" value="IADD" style="rounded=1;whiteSpace=wrap;html=1;" vertex="1" parent="32">
                    <mxGeometry x="34.5" y="25" width="75" height="30" as="geometry"/>
                </mxCell>
                <mxCell id="28" value="IMUL" style="rounded=1;whiteSpace=wrap;html=1;" vertex="1" parent="32">
                    <mxGeometry x="34.5" y="60" width="75" height="30" as="geometry"/>
                </mxCell>
                <mxCell id="29" value="IDIV" style="rounded=1;whiteSpace=wrap;html=1;" vertex="1" parent="32">
                    <mxGeometry x="34.5" y="95" width="75" height="30" as="geometry"/>
                </mxCell>
                <mxCell id="31" value="&lt;b&gt;EU&lt;/b&gt;" style="text;html=1;strokeColor=none;fillColor=none;align=center;verticalAlign=middle;whiteSpace=wrap;rounded=0;" vertex="1" parent="32">
                    <mxGeometry x="112.5" width="60" height="20" as="geometry"/>
                </mxCell>
                <mxCell id="14" value="" style="group" vertex="1" connectable="0" parent="1">
                    <mxGeometry x="510" y="90" width="110" height="250" as="geometry"/>
                </mxCell>
                <mxCell id="6" value="" style="rounded=1;whiteSpace=wrap;html=1;container=0;" vertex="1" parent="14">
                    <mxGeometry width="110.00000000000003" height="250" as="geometry"/>
                </mxCell>
                <mxCell id="2" value="Ext&lt;br&gt;Mem&lt;br&gt;Adptor" style="rounded=1;whiteSpace=wrap;html=1;container=0;" vertex="1" parent="14">
                    <mxGeometry x="70" y="100" width="40" height="60" as="geometry"/>
                </mxCell>
                <mxCell id="3" value="IFQ" style="rounded=0;whiteSpace=wrap;html=1;container=0;" vertex="1" parent="14">
                    <mxGeometry y="32" width="50" height="60" as="geometry"/>
                </mxCell>
                <mxCell id="4" value="DIQ" style="rounded=0;whiteSpace=wrap;html=1;container=0;" vertex="1" parent="14">
                    <mxGeometry y="100" width="50" height="60" as="geometry"/>
                </mxCell>
                <mxCell id="5" value="DOQ" style="rounded=0;whiteSpace=wrap;html=1;container=0;" vertex="1" parent="14">
                    <mxGeometry y="160" width="50" height="60" as="geometry"/>
                </mxCell>
                <mxCell id="10" value="" style="endArrow=classic;startArrow=classic;html=1;entryX=0;entryY=0.475;entryDx=0;entryDy=0;entryPerimeter=0;exitX=1;exitY=0.5;exitDx=0;exitDy=0;" edge="1" parent="14" source="4" target="2">
                    <mxGeometry width="50" height="50" relative="1" as="geometry">
                        <mxPoint x="68.75" y="120" as="sourcePoint"/>
                        <mxPoint x="90.86458333333336" y="129.99999999999994" as="targetPoint"/>
                    </mxGeometry>
                </mxCell>
                <mxCell id="12" value="" style="endArrow=classic;startArrow=classic;html=1;entryX=0;entryY=0.75;entryDx=0;entryDy=0;exitX=1;exitY=0.75;exitDx=0;exitDy=0;" edge="1" parent="14" source="5" target="2">
                    <mxGeometry width="50" height="50" relative="1" as="geometry">
                        <mxPoint x="68.75" y="189.5" as="sourcePoint"/>
                        <mxPoint x="91.66666666666669" y="189.5" as="targetPoint"/>
                        <Array as="points">
                            <mxPoint x="77.91666666666669" y="205"/>
                            <mxPoint x="78" y="160"/>
                        </Array>
                    </mxGeometry>
                </mxCell>
                <mxCell id="13" value="" style="endArrow=classic;startArrow=classic;html=1;exitX=1;exitY=0.5;exitDx=0;exitDy=0;entryX=-0.013;entryY=0.171;entryDx=0;entryDy=0;entryPerimeter=0;" edge="1" parent="14" source="3" target="2">
                    <mxGeometry width="50" height="50" relative="1" as="geometry">
                        <mxPoint x="73.33333333333336" y="215" as="sourcePoint"/>
                        <mxPoint x="178.75000000000003" y="160" as="targetPoint"/>
                        <Array as="points">
                            <mxPoint x="77.91666666666669" y="62"/>
                            <mxPoint x="77.91666666666669" y="110"/>
                        </Array>
                    </mxGeometry>
                </mxCell>
                <mxCell id="33" value="&lt;b&gt;MIO&lt;/b&gt;" style="text;html=1;strokeColor=none;fillColor=none;align=center;verticalAlign=middle;whiteSpace=wrap;rounded=0;" vertex="1" parent="14">
                    <mxGeometry x="41.25" width="27.500000000000007" height="20" as="geometry"/>
                </mxCell>
                <mxCell id="51" value="" style="group" vertex="1" connectable="0" parent="1">
                    <mxGeometry x="220" y="90" width="130" height="91" as="geometry"/>
                </mxCell>
                <mxCell id="47" value="" style="rounded=1;whiteSpace=wrap;html=1;" vertex="1" parent="51">
                    <mxGeometry width="130" height="70" as="geometry"/>
                </mxCell>
                <mxCell id="48" value="ARRAY[n]" style="rounded=1;whiteSpace=wrap;html=1;" vertex="1" parent="51">
                    <mxGeometry x="18" y="20" width="90" height="46" as="geometry"/>
                </mxCell>
                <mxCell id="49" value="&lt;b&gt;Register File&lt;/b&gt;" style="text;html=1;strokeColor=none;fillColor=none;align=center;verticalAlign=middle;whiteSpace=wrap;rounded=0;" vertex="1" parent="51">
                    <mxGeometry x="26.569999999999993" width="75.43" height="20" as="geometry"/>
                </mxCell>
                <mxCell id="50" value="I/O" style="rounded=1;whiteSpace=wrap;html=1;" vertex="1" parent="51">
                    <mxGeometry x="40" y="66" width="50" height="25" as="geometry"/>
                </mxCell>
                <mxCell id="53" value="" style="group" vertex="1" connectable="0" parent="1">
                    <mxGeometry x="370" y="90" width="130" height="91" as="geometry"/>
                </mxCell>
                <mxCell id="54" value="" style="rounded=1;whiteSpace=wrap;html=1;" vertex="1" parent="53">
                    <mxGeometry width="127" height="70" as="geometry"/>
                </mxCell>
                <mxCell id="55" value="DU" style="rounded=1;whiteSpace=wrap;html=1;" vertex="1" parent="53">
                    <mxGeometry x="20" y="20" width="90" height="46" as="geometry"/>
                </mxCell>
                <mxCell id="56" value="&lt;b&gt;Decoder&lt;/b&gt;" style="text;html=1;strokeColor=none;fillColor=none;align=center;verticalAlign=middle;whiteSpace=wrap;rounded=0;" vertex="1" parent="53">
                    <mxGeometry x="26.569999999999993" width="75.43" height="20" as="geometry"/>
                </mxCell>
                <mxCell id="57" value="I-Dispatcher" style="rounded=1;whiteSpace=wrap;html=1;" vertex="1" parent="53">
                    <mxGeometry x="30" y="66" width="70" height="25" as="geometry"/>
                </mxCell>
                <mxCell id="68" value="" style="endArrow=classic;html=1;exitX=0.75;exitY=0;exitDx=0;exitDy=0;entryX=1;entryY=0.87;entryDx=0;entryDy=0;entryPerimeter=0;" edge="1" parent="1" source="69" target="55">
                    <mxGeometry width="50" height="50" relative="1" as="geometry">
                        <mxPoint x="280" y="200" as="sourcePoint"/>
                        <mxPoint x="630" y="90" as="targetPoint"/>
                    </mxGeometry>
                </mxCell>
                <mxCell id="69" value="ISB" style="rounded=1;whiteSpace=wrap;html=1;" vertex="1" parent="1">
                    <mxGeometry x="430.5" y="189" width="75" height="14" as="geometry"/>
                </mxCell>
                <mxCell id="70" value="" style="endArrow=classic;html=1;entryX=0;entryY=0.25;entryDx=0;entryDy=0;exitX=1;exitY=0.5;exitDx=0;exitDy=0;" edge="1" parent="1" source="55" target="3">
                    <mxGeometry width="50" height="50" relative="1" as="geometry">
                        <mxPoint x="490" y="137" as="sourcePoint"/>
                        <mxPoint x="330" y="150" as="targetPoint"/>
                    </mxGeometry>
                </mxCell>
            </root>
        </mxGraphModel>
    </diagram>
</mxfile>